{
    "asset" : {
        "generator" : "Khronos glTF Blender I/O v0.9.36",
        "version" : "2.0"
    },
    "scene" : 0,
    "scenes" : [
        {
            "name" : "Scene",
            "nodes" : [
                0,
                1,
                2,
                3,
                4
            ]
        }
    ],
    "nodes" : [
        {
            "mesh" : 0,
            "name" : "Caroserie",
            "scale" : [
                1.8511574268341064,
                0.2692584991455078,
                0.7460918426513672
            ],
            "translation" : [
                -0.003967165946960449,
                -0.0007681101560592651,
                -2.783552408218384
            ]
        },
        {
            "mesh" : 1,
            "name" : "Wiel",
            "rotation" : [
                0.7071067690849304,
                0,
                0,
                0.7071067690849304
            ],
            "translation" : [
                1.1690641641616821,
                -0.16418127715587616,
                -3.3735523223876953
            ]
        },
        {
            "name" : "Light",
            "rotation" : [
                0.16907575726509094,
                0.7558803558349609,
                -0.27217137813568115,
                0.570947527885437
            ],
            "translation" : [
                4.076245307922363,
                5.903861999511719,
                -1.0054539442062378
            ]
        },
        {
            "name" : "Camera",
            "rotation" : [
                0.483536034822464,
                0.33687159419059753,
                -0.20870360732078552,
                0.7804827094078064
            ],
            "translation" : [
                7.358891487121582,
                4.958309173583984,
                6.925790786743164
            ]
        },
        {
            "name" : "Empty",
            "rotation" : [
                0,
                0.7071067094802856,
                -0.7071068286895752,
                -3.0908616110991716e-08
            ],
            "translation" : [
                0.013766221702098846,
                0.7531496286392212,
                -0.000367441913112998
            ]
        }
    ],
    "meshes" : [
        {
            "name" : "Cube",
            "primitives" : [
                {
                    "attributes" : {
                        "POSITION" : 0,
                        "NORMAL" : 1,
                        "TEXCOORD_0" : 2
                    },
                    "indices" : 3
                }
            ]
        },
        {
            "name" : "Cylinder",
            "primitives" : [
                {
                    "attributes" : {
                        "POSITION" : 4,
                        "NORMAL" : 5,
                        "TEXCOORD_0" : 6
                    },
                    "indices" : 7
                }
            ]
        }
    ],
    "accessors" : [
        {
            "bufferView" : 0,
            "componentType" : 5126,
            "count" : 806,
            "max" : [
                1.00014066696167,
                2.316153049468994,
                0.6955176591873169
            ],
            "min" : [
                -0.9699386358261108,
                -0.8718442320823669,
                -0.6955176591873169
            ],
            "type" : "VEC3"
        },
        {
            "bufferView" : 1,
            "componentType" : 5126,
            "count" : 806,
            "type" : "VEC3"
        },
        {
            "bufferView" : 2,
            "componentType" : 5126,
            "count" : 806,
            "type" : "VEC2"
        },
        {
            "bufferView" : 3,
            "componentType" : 5123,
            "count" : 1242,
            "type" : "SCALAR"
        },
        {
            "bufferView" : 4,
            "componentType" : 5126,
            "count" : 9568,
            "max" : [
                0.2599191665649414,
                1.255000114440918,
                0.25999999046325684
            ],
            "min" : [
                -2.372572660446167,
                -0.07500004768371582,
                -0.26189905405044556
            ],
            "type" : "VEC3"
        },
        {
            "bufferView" : 5,
            "componentType" : 5126,
            "count" : 9568,
            "type" : "VEC3"
        },
        {
            "bufferView" : 6,
            "componentType" : 5126,
            "count" : 9568,
            "type" : "VEC2"
        },
        {
            "bufferView" : 7,
            "componentType" : 5123,
            "count" : 17352,
            "type" : "SCALAR"
        }
    ],
    "bufferViews" : [
        {
            "buffer" : 0,
            "byteLength" : 9672,
            "byteOffset" : 0
        },
        {
            "buffer" : 0,
            "byteLength" : 9672,
            "byteOffset" : 9672
        },
        {
            "buffer" : 0,
            "byteLength" : 6448,
            "byteOffset" : 19344
        },
        {
            "buffer" : 0,
            "byteLength" : 2484,
            "byteOffset" : 25792
        },
        {
            "buffer" : 0,
            "byteLength" : 114816,
            "byteOffset" : 28276
        },
        {
            "buffer" : 0,
            "byteLength" : 114816,
            "byteOffset" : 143092
        },
        {
            "buffer" : 0,
            "byteLength" : 76544,
            "byteOffset" : 257908
        },
        {
            "buffer" : 0,
            "byteLength" : 34704,
            "byteOffset" : 334452
        }
    ],
    "buffers" : [
        {
            "byteLength" : 369156,
            "uri" : "data:application/octet-stream;base64,"
        }
    ]
}
